<?xml version="1.0" encoding="utf-8"?>
<!-- Generator: Adobe Illustrator 25.4.1, SVG Export Plug-In . SVG Version: 6.00 Build 0)  -->
<svg version="1.1" id="레이어_1" xmlns="http://www.w3.org/2000/svg" xmlns:xlink="http://www.w3.org/1999/xlink" x="0px"
	 y="0px" viewBox="0 0 79.37 87.87" style="enable-background:new 0 0 79.37 87.87;" xml:space="preserve">
<style type="text/css">
	.st0{fill:#00478B;}
	.st1{fill:#2F93BA;}
	.st2{fill:none;}
</style>
<g>
	<g>
		<path class="st0" d="M47.72,8.79c-0.12-0.43-0.24-0.81-0.39-1.17c-1.29-3.16-4.17-5.49-7.52-6.09c-0.62-0.11-1.2-0.17-1.76-0.17
			h-9.24c-5.53,0-10.02,4.5-10.02,10.02v37.9l4.28-1.59V11.38c0-3.16,2.57-5.74,5.74-5.74h9.24c0.51,0,1.04,0.07,1.55,0.22
			c1.26,0.35,2.37,1.14,3.13,2.21c0.23,0.33,0.43,0.67,0.58,1.03c0.06,0.14,0.12,0.29,0.17,0.45h4.41
			C47.84,9.28,47.79,9.02,47.72,8.79z"/>
		<polygon class="st0" points="43.79,27.25 38.13,27.25 38.13,31.54 43.79,31.54 43.79,43.01 48.07,44.6 48.07,16.39 43.79,16.39 		
			"/>
		<path class="st1" d="M50.55,9.55h-2.66h-4.41h-2.17c-0.52,0-1.06,0.05-1.66,0.15c-4.84,0.81-8.36,4.96-8.36,9.87v25.07l4.28-1.59
			V19.57c0-2.6,1.76-4.88,4.28-5.54c0.49-0.13,0.98-0.2,1.46-0.2h9.24c3.16,0,5.74,2.57,5.74,5.74v28.08l4.28,1.59V19.57
			C60.57,14.04,56.08,9.55,50.55,9.55z"/>
	</g>
	<g>
		<path class="st2" d="M42.64,84.23c0.3-0.01,0.61-0.02,0.92-0.04v-3.14h-0.92V84.23z"/>
		<path class="st2" d="M24.47,81c-0.46,0-0.75,0.6-0.75,1.66c0,1.07,0.28,1.67,0.75,1.67c0.46,0,0.75-0.6,0.75-1.67
			C25.21,81.6,24.93,81,24.47,81z"/>
		<path class="st2" d="M34,80.94c-0.58,0-0.99,0.63-0.99,1.68c0,1.06,0.41,1.69,0.99,1.69c0.59,0,1-0.63,1-1.69
			C35,81.58,34.59,80.94,34,80.94z"/>
		<path class="st0" d="M26.62,82.31H25.9c-0.08-1.26-0.63-2.03-1.43-2.03c-0.87,0-1.45,0.91-1.45,2.39s0.57,2.4,1.45,2.4
			c0.82,0,1.37-0.81,1.44-2.12h0.72v3.23h0.72v-6.29h-0.72V82.31z M24.47,84.34c-0.46,0-0.75-0.6-0.75-1.67
			C23.72,81.6,24,81,24.47,81c0.46,0,0.75,0.6,0.75,1.66C25.21,83.73,24.93,84.34,24.47,84.34z"/>
		<rect x="27.97" y="79.76" class="st0" width="0.73" height="6.73"/>
		<rect x="36.82" y="79.75" class="st0" width="0.78" height="6.76"/>
		<path class="st0" d="M34,80.25c-1,0-1.73,0.93-1.73,2.37C32.27,84.09,33,85,34,85c1.01,0,1.74-0.92,1.74-2.38
			C35.74,81.17,35.01,80.25,34,80.25z M34,84.32c-0.58,0-0.99-0.63-0.99-1.69c0-1.04,0.41-1.68,0.99-1.68c0.59,0,1,0.63,1,1.68
			C35,83.68,34.59,84.32,34,84.32z"/>
		<polygon class="st0" points="46.36,79.76 45.59,79.76 45.59,86.5 46.36,86.5 46.36,83.03 47.41,83.03 47.41,82.39 46.36,82.39 		
			"/>
		<path class="st0" d="M44.3,84.16v-3.1h0.66v-0.62h-3.72v0.62h0.66v3.19c-0.29,0-0.57,0-0.83,0l0.08,0.63
			c1.17,0,2.73-0.02,4.13-0.25l-0.04-0.57C44.93,84.1,44.61,84.13,44.3,84.16z M43.55,84.2c-0.31,0.02-0.62,0.03-0.92,0.04v-3.18
			h0.92V84.2z"/>
		<rect x="50.24" y="85.04" class="st0" width="6.11" height="0.63"/>
		<polygon class="st0" points="55.67,83.32 51.78,83.32 51.78,82.39 55.46,82.39 55.46,81.79 51.78,81.79 51.78,80.92 55.61,80.92 
			55.61,80.3 50.99,80.3 50.99,83.94 55.67,83.94 		"/>
	</g>
	<g>
		<path class="st0" d="M12.76,56.09H9.1c-4.85,0-8.79,3.93-8.79,8.79v8.1h2.73v-5.36h9.19v5.36h2.73V58.29
			C14.96,57.07,13.98,56.09,12.76,56.09z M12.23,65.57H3.04v-0.69c0-3.35,2.71-6.06,6.06-6.06h3.13V65.57z"/>
		<path class="st2" d="M44.24,67.92C44.08,68.11,44,68.39,44,68.76v0.48c0,0.42,0.08,0.72,0.24,0.91c0.16,0.19,0.43,0.29,0.82,0.29
			h6.36c0.2,0,0.34-0.06,0.42-0.17c0.08-0.12,0.12-0.32,0.12-0.61v-2.03h-6.91C44.67,67.63,44.4,67.73,44.24,67.92z"/>
		<path class="st2" d="M35.05,63.63c-0.16-0.19-0.37-0.33-0.63-0.42c-0.26-0.08-0.6-0.13-1.02-0.13h-4.75c-0.4,0-0.74,0.04-1,0.13
			c-0.26,0.08-0.48,0.22-0.63,0.42c-0.16,0.19-0.27,0.45-0.33,0.78c-0.06,0.33-0.09,0.73-0.09,1.21v4.59h6.81
			c0.42,0,0.75-0.04,1.02-0.12c0.26-0.08,0.47-0.22,0.63-0.42c0.16-0.2,0.27-0.46,0.33-0.78c0.06-0.32,0.09-0.73,0.09-1.22v-2.05
			c0-0.48-0.03-0.88-0.09-1.21C35.32,64.09,35.21,63.82,35.05,63.63z"/>
		<path class="st0" d="M37.18,61.42c-0.35-0.38-0.81-0.65-1.39-0.83c-0.58-0.18-1.29-0.27-2.13-0.27h-5.28
			c-0.86,0-1.57,0.09-2.14,0.27c-0.57,0.18-1.03,0.45-1.38,0.83c-0.35,0.38-0.59,0.86-0.75,1.45c-0.15,0.59-0.23,1.3-0.23,2.13
			v13.08h2.7v-5.1h7.08c0.84,0,1.55-0.08,2.13-0.25c0.58-0.17,1.04-0.44,1.39-0.82c0.35-0.38,0.59-0.86,0.75-1.45
			c0.15-0.59,0.23-1.3,0.23-2.13V65c0-0.83-0.08-1.54-0.23-2.13C37.78,62.28,37.53,61.79,37.18,61.42z M35.47,67.68
			c0,0.49-0.03,0.9-0.09,1.22c-0.06,0.32-0.17,0.58-0.33,0.78c-0.16,0.2-0.37,0.34-0.63,0.42c-0.26,0.08-0.6,0.12-1.02,0.12h-6.81
			v-4.59c0-0.48,0.03-0.88,0.09-1.21c0.06-0.33,0.17-0.59,0.33-0.78c0.16-0.19,0.37-0.33,0.63-0.42c0.26-0.08,0.6-0.13,1-0.13h4.75
			c0.42,0,0.75,0.04,1.02,0.13c0.26,0.08,0.47,0.22,0.63,0.42c0.16,0.19,0.27,0.45,0.33,0.78c0.06,0.33,0.09,0.73,0.09,1.21V67.68z"
			/>
		<path class="st0" d="M53.69,61.42c-0.35-0.38-0.81-0.65-1.39-0.83c-0.58-0.18-1.29-0.27-2.13-0.27h-8.52v2.77h8.26
			c0.42,0,0.75,0.04,1.02,0.12c0.26,0.08,0.47,0.2,0.62,0.36c0.15,0.16,0.26,0.37,0.32,0.63c0.06,0.26,0.09,0.58,0.09,0.95v0.44
			h-7.68c-0.55,0-1.02,0.07-1.39,0.2c-0.37,0.13-0.67,0.33-0.9,0.59c-0.23,0.26-0.39,0.58-0.48,0.96c-0.09,0.38-0.14,0.8-0.14,1.28
			v1.11c0,0.57,0.05,1.06,0.14,1.48c0.09,0.42,0.25,0.75,0.48,1.01c0.23,0.26,0.52,0.46,0.9,0.59c0.37,0.13,0.83,0.2,1.39,0.2h8.98
			c0.28,0,0.5-0.03,0.68-0.08c0.18-0.05,0.32-0.15,0.42-0.29c0.11-0.14,0.18-0.33,0.23-0.56s0.07-0.54,0.07-0.91V65
			c0-0.83-0.08-1.54-0.23-2.13C54.28,62.28,54.04,61.79,53.69,61.42z M51.96,69.66c0,0.29-0.04,0.5-0.12,0.61
			c-0.08,0.12-0.22,0.17-0.42,0.17h-6.36c-0.39,0-0.66-0.1-0.82-0.29c-0.16-0.19-0.24-0.5-0.24-0.91v-0.48
			c0-0.37,0.08-0.65,0.24-0.84c0.16-0.19,0.43-0.29,0.82-0.29h6.91V69.66z"/>
		<path class="st0" d="M62.53,60.32c-0.86,0-1.57,0.09-2.14,0.27c-0.57,0.18-1.03,0.45-1.38,0.83c-0.35,0.38-0.59,0.86-0.75,1.45
			c-0.15,0.59-0.23,1.3-0.23,2.13v7.98h2.7v-7.36c0-0.48,0.03-0.88,0.09-1.21c0.06-0.33,0.17-0.59,0.33-0.78
			c0.16-0.19,0.37-0.33,0.63-0.42c0.26-0.08,0.6-0.13,1-0.13h1.16h4.2v-2.77h-4.2H62.53z"/>
		<path class="st0" d="M75.42,56.77h-2.7v3.55h-2.13v2.72h2.13v5.35c0,0.82,0.06,1.51,0.17,2.1c0.11,0.58,0.32,1.06,0.61,1.43
			c0.3,0.37,0.69,0.64,1.18,0.81c0.49,0.17,1.11,0.25,1.87,0.25h2.51v-2.72H77c-0.63,0-1.05-0.15-1.26-0.45
			c-0.21-0.3-0.32-0.77-0.32-1.42v-5.35h3.64v-2.72h-3.64V56.77z"/>
		<rect x="17.71" y="69.47" class="st1" width="3.43" height="3.43"/>
	</g>
</g>
</svg>
