<?xml version="1.0" encoding="utf-8"?>
<!-- Generator: Adobe Illustrator 25.4.1, SVG Export Plug-In . SVG Version: 6.00 Build 0)  -->
<svg version="1.1" id="레이어_1" xmlns="http://www.w3.org/2000/svg" xmlns:xlink="http://www.w3.org/1999/xlink" x="0px"
	 y="0px" viewBox="0 0 136.06 42.52" style="enable-background:new 0 0 136.06 42.52;" xml:space="preserve">
<style type="text/css">
	.st0{fill:none;}
	.st1{fill:#00478B;}
	.st2{fill:#448DB2;}
	.st3{fill:#2F93BA;}
</style>
<g>
	<path class="st0" d="M86.29,29.88c0.29-0.08,0.52-0.24,0.69-0.46c0.17-0.22,0.29-0.51,0.36-0.86c0.07-0.35,0.1-0.8,0.1-1.34v-2.25
		c0-0.52-0.03-0.97-0.1-1.33c-0.07-0.36-0.19-0.65-0.36-0.86c-0.17-0.21-0.4-0.36-0.69-0.46c-0.29-0.09-0.66-0.14-1.12-0.14h-5.21
		c-0.44,0-0.81,0.05-1.1,0.14c-0.29,0.09-0.52,0.24-0.69,0.46c-0.17,0.21-0.29,0.5-0.36,0.86c-0.07,0.36-0.1,0.81-0.1,1.33V30h7.47
		C85.62,30,86,29.96,86.29,29.88z"/>
	<path class="st0" d="M97.96,30.26h6.97c0.22,0,0.38-0.06,0.47-0.19c0.09-0.13,0.13-0.35,0.13-0.67v-2.23h-7.57
		c-0.43,0-0.73,0.11-0.9,0.32c-0.17,0.21-0.26,0.52-0.26,0.92v0.53c0,0.46,0.09,0.79,0.26,1C97.23,30.15,97.53,30.26,97.96,30.26z"
		/>
	<path class="st0" d="M51.88,24.15v0.76h10.08V17.5h-3.43C54.85,17.5,51.88,20.48,51.88,24.15z"/>
	<path class="st1" d="M25.14,7.35c-0.1-0.36-0.2-0.68-0.33-0.98c-1.08-2.66-3.5-4.62-6.32-5.12c-0.52-0.09-1.01-0.14-1.48-0.14H9.25
		c-4.65,0-8.43,3.78-8.43,8.43v31.87l3.6-1.34V9.54c0-2.66,2.16-4.83,4.83-4.83h7.77c0.43,0,0.87,0.06,1.31,0.18
		c1.06,0.3,1.99,0.96,2.63,1.86c0.2,0.28,0.36,0.57,0.49,0.86c0.05,0.12,0.1,0.24,0.14,0.38h3.7C25.24,7.77,25.19,7.55,25.14,7.35z"
		/>
	<polygon class="st1" points="21.84,22.88 17.08,22.88 17.08,26.48 21.84,26.48 21.84,36.13 25.44,37.46 25.44,13.74 21.84,13.74 	
		"/>
	<path class="st2" d="M27.52,7.99h-2.24h-3.7h-1.82c-0.44,0-0.89,0.04-1.4,0.13c-4.07,0.68-7.03,4.17-7.03,8.3V37.5l3.6-1.34V16.42
		c0-2.19,1.48-4.1,3.6-4.66c0.41-0.11,0.83-0.16,1.23-0.16h7.77c2.66,0,4.83,2.16,4.83,4.83v23.61l3.6,1.34V16.42
		C35.95,11.77,32.17,7.99,27.52,7.99z"/>
	<path class="st1" d="M62.54,14.51h-4.01c-5.32,0-9.64,4.32-9.64,9.64v8.89h2.99v-5.88h10.08v5.88h2.99V16.92
		C64.95,15.59,63.87,14.51,62.54,14.51z M61.96,24.91H51.88v-0.76c0-3.67,2.98-6.65,6.65-6.65h3.43V24.91z"/>
	<path class="st1" d="M77.7,33.04h7.76c0.92,0,1.7-0.09,2.34-0.28c0.63-0.19,1.14-0.48,1.52-0.9c0.38-0.41,0.65-0.94,0.82-1.59
		c0.17-0.65,0.25-1.43,0.25-2.34v-3.64c0-0.91-0.08-1.69-0.25-2.34c-0.17-0.65-0.44-1.18-0.82-1.59c-0.38-0.41-0.89-0.72-1.52-0.91
		c-0.63-0.19-1.41-0.29-2.34-0.29h-5.79c-0.94,0-1.72,0.1-2.35,0.29c-0.63,0.19-1.13,0.5-1.51,0.91c-0.38,0.41-0.65,0.94-0.82,1.59
		c-0.17,0.65-0.25,1.43-0.25,2.34v14.34h2.96V33.04z M77.7,24.97c0-0.52,0.03-0.97,0.1-1.33c0.07-0.36,0.19-0.65,0.36-0.86
		c0.17-0.21,0.4-0.36,0.69-0.46c0.29-0.09,0.65-0.14,1.1-0.14h5.21c0.46,0,0.83,0.05,1.12,0.14c0.29,0.09,0.52,0.24,0.69,0.46
		c0.17,0.21,0.29,0.5,0.36,0.86c0.07,0.36,0.1,0.81,0.1,1.33v2.25c0,0.54-0.03,0.99-0.1,1.34c-0.07,0.35-0.19,0.64-0.36,0.86
		c-0.17,0.22-0.4,0.37-0.69,0.46C86,29.96,85.62,30,85.17,30H77.7V24.97z"/>
	<path class="st1" d="M94.6,32.18c0.25,0.29,0.58,0.5,0.98,0.64c0.41,0.14,0.91,0.22,1.52,0.22h9.85c0.3,0,0.55-0.03,0.74-0.09
		c0.19-0.06,0.35-0.16,0.47-0.32c0.12-0.15,0.2-0.36,0.25-0.62c0.05-0.26,0.07-0.59,0.07-1v-6.73c0-0.91-0.08-1.69-0.25-2.34
		c-0.17-0.65-0.44-1.18-0.82-1.59c-0.38-0.41-0.89-0.72-1.52-0.91c-0.63-0.19-1.41-0.29-2.34-0.29h-9.35v3.04h9.06
		c0.46,0,0.83,0.04,1.12,0.13c0.29,0.08,0.52,0.22,0.68,0.39c0.17,0.18,0.28,0.41,0.35,0.7c0.07,0.29,0.1,0.63,0.1,1.04v0.48h-8.42
		c-0.61,0-1.11,0.07-1.52,0.22c-0.41,0.14-0.73,0.36-0.98,0.64c-0.25,0.29-0.42,0.64-0.53,1.05c-0.1,0.41-0.16,0.88-0.16,1.4v1.21
		c0,0.62,0.05,1.16,0.16,1.62C94.18,31.52,94.36,31.89,94.6,32.18z M96.8,28.41c0-0.4,0.09-0.71,0.26-0.92
		c0.17-0.21,0.47-0.32,0.9-0.32h7.57v2.23c0,0.32-0.05,0.54-0.13,0.67c-0.09,0.13-0.25,0.19-0.47,0.19h-6.97
		c-0.43,0-0.73-0.1-0.9-0.32c-0.17-0.21-0.26-0.54-0.26-1V28.41z"/>
	<path class="st1" d="M117.12,19.15c-0.94,0-1.72,0.1-2.35,0.29c-0.63,0.19-1.13,0.5-1.51,0.91c-0.38,0.41-0.65,0.94-0.82,1.59
		c-0.17,0.65-0.25,1.43-0.25,2.34v8.75h2.96v-8.07c0-0.52,0.03-0.97,0.1-1.33c0.07-0.36,0.19-0.65,0.36-0.86
		c0.17-0.21,0.4-0.36,0.69-0.46c0.29-0.09,0.65-0.14,1.1-0.14h1.27h4.61v-3.04h-4.61H117.12z"/>
	<path class="st1" d="M135.24,22.14v-2.98h-3.99v-3.89h-2.96v3.89h-2.34v2.98h2.34v5.87c0,0.89,0.06,1.66,0.19,2.3
		c0.12,0.64,0.35,1.16,0.67,1.57c0.32,0.4,0.76,0.7,1.29,0.88c0.54,0.19,1.22,0.28,2.05,0.28h2.75v-2.98h-2.25
		c-0.69,0-1.15-0.16-1.39-0.49c-0.23-0.33-0.35-0.85-0.35-1.56v-5.87H135.24z"/>
	<rect x="67.96" y="29.19" class="st3" width="3.76" height="3.76"/>
</g>
</svg>
