<?xml version="1.0" encoding="utf-8"?>
<!-- Generator: Adobe Illustrator 25.4.1, SVG Export Plug-In . SVG Version: 6.00 Build 0)  -->
<svg version="1.1" id="레이어_1" xmlns="http://www.w3.org/2000/svg" xmlns:xlink="http://www.w3.org/1999/xlink" x="0px"
     y="0px" viewBox="0 0 79.37 79.37" style="enable-background:new 0 0 79.37 79.37;" xml:space="preserve">
<style type="text/css">
	.st0{fill:#00478B;}
	.st1{fill:#2F93BA;}
	.st2{fill:none;}
</style>
    <g>
	<g>
		<path class="st0" d="M47.72,8.75c-0.12-0.43-0.24-0.81-0.39-1.17c-1.29-3.16-4.17-5.49-7.52-6.09c-0.62-0.11-1.2-0.17-1.76-0.17
			h-9.24c-5.53,0-10.02,4.5-10.02,10.02v37.9l4.28-1.59V11.35c0-3.16,2.57-5.74,5.74-5.74h9.24c0.51,0,1.04,0.07,1.55,0.22
			c1.26,0.35,2.37,1.14,3.13,2.21c0.23,0.33,0.43,0.67,0.58,1.03c0.06,0.14,0.12,0.29,0.17,0.45h4.41
			C47.84,9.25,47.79,8.99,47.72,8.75z"/>
        <polygon class="st0" points="43.79,27.22 38.13,27.22 38.13,31.5 43.79,31.5 43.79,42.97 48.07,44.56 48.07,16.35 43.79,16.35
			"/>
        <path class="st1" d="M50.55,9.51h-2.66h-4.41h-2.17c-0.52,0-1.06,0.05-1.66,0.15c-4.84,0.81-8.36,4.96-8.36,9.87v25.07l4.28-1.59
			V19.53c0-2.6,1.76-4.88,4.28-5.54c0.49-0.13,0.98-0.2,1.46-0.2h9.24c3.16,0,5.74,2.57,5.74,5.74v28.08l4.28,1.59V19.53
			C60.57,14.01,56.08,9.51,50.55,9.51z"/>
	</g>
        <g>
		<path class="st0" d="M12.76,56.05H9.1c-4.85,0-8.79,3.93-8.79,8.79v8.1h2.73v-5.36h9.19v5.36h2.73V58.25
			C14.96,57.04,13.98,56.05,12.76,56.05z M12.23,65.53H3.04v-0.69c0-3.35,2.71-6.06,6.06-6.06h3.13V65.53z"/>
            <path class="st2" d="M44.24,67.89C44.08,68.08,44,68.36,44,68.73v0.48c0,0.42,0.08,0.72,0.24,0.91c0.16,0.19,0.43,0.29,0.82,0.29
			h6.36c0.2,0,0.34-0.06,0.42-0.17c0.08-0.12,0.12-0.32,0.12-0.61V67.6h-6.91C44.67,67.6,44.4,67.69,44.24,67.89z"/>
            <path class="st2" d="M35.05,63.6c-0.16-0.19-0.37-0.33-0.63-0.42c-0.26-0.08-0.6-0.13-1.02-0.13h-4.75c-0.4,0-0.74,0.04-1,0.13
			c-0.26,0.08-0.48,0.22-0.63,0.42c-0.16,0.19-0.27,0.45-0.33,0.78c-0.06,0.33-0.09,0.73-0.09,1.21v4.59h6.81
			c0.42,0,0.75-0.04,1.02-0.12c0.26-0.08,0.47-0.22,0.63-0.42c0.16-0.2,0.27-0.46,0.33-0.78c0.06-0.32,0.09-0.73,0.09-1.22v-2.05
			c0-0.48-0.03-0.88-0.09-1.21C35.32,64.05,35.21,63.79,35.05,63.6z"/>
            <path class="st0" d="M37.18,61.38c-0.35-0.38-0.81-0.65-1.39-0.83c-0.58-0.18-1.29-0.27-2.13-0.27h-5.28
			c-0.86,0-1.57,0.09-2.14,0.27c-0.57,0.18-1.03,0.45-1.38,0.83c-0.35,0.38-0.59,0.86-0.75,1.45c-0.15,0.59-0.23,1.3-0.23,2.13
			v13.08h2.7v-5.1h7.08c0.84,0,1.55-0.08,2.13-0.25c0.58-0.17,1.04-0.44,1.39-0.82c0.35-0.38,0.59-0.86,0.75-1.45
			c0.15-0.59,0.23-1.3,0.23-2.13v-3.32c0-0.83-0.08-1.54-0.23-2.13C37.78,62.24,37.53,61.76,37.18,61.38z M35.47,67.64
			c0,0.49-0.03,0.9-0.09,1.22c-0.06,0.32-0.17,0.58-0.33,0.78c-0.16,0.2-0.37,0.34-0.63,0.42c-0.26,0.08-0.6,0.12-1.02,0.12h-6.81
			v-4.59c0-0.48,0.03-0.88,0.09-1.21c0.06-0.33,0.17-0.59,0.33-0.78c0.16-0.19,0.37-0.33,0.63-0.42c0.26-0.08,0.6-0.13,1-0.13h4.75
			c0.42,0,0.75,0.04,1.02,0.13c0.26,0.08,0.47,0.22,0.63,0.42c0.16,0.19,0.27,0.45,0.33,0.78c0.06,0.33,0.09,0.73,0.09,1.21V67.64z"
            />
            <path class="st0" d="M53.69,61.38c-0.35-0.38-0.81-0.65-1.39-0.83c-0.58-0.18-1.29-0.27-2.13-0.27h-8.52v2.77h8.26
			c0.42,0,0.75,0.04,1.02,0.12c0.26,0.08,0.47,0.2,0.62,0.36c0.15,0.16,0.26,0.37,0.32,0.63c0.06,0.26,0.09,0.58,0.09,0.95v0.44
			h-7.68c-0.55,0-1.02,0.07-1.39,0.2c-0.37,0.13-0.67,0.33-0.9,0.59c-0.23,0.26-0.39,0.58-0.48,0.96c-0.09,0.38-0.14,0.8-0.14,1.28
			v1.11c0,0.57,0.05,1.06,0.14,1.48c0.09,0.42,0.25,0.75,0.48,1.01c0.23,0.26,0.52,0.46,0.9,0.59c0.37,0.13,0.83,0.2,1.39,0.2h8.98
			c0.28,0,0.5-0.03,0.68-0.08c0.18-0.05,0.32-0.15,0.42-0.29c0.11-0.14,0.18-0.33,0.23-0.56c0.04-0.24,0.07-0.54,0.07-0.91v-6.13
			c0-0.83-0.08-1.54-0.23-2.13C54.28,62.24,54.04,61.76,53.69,61.38z M51.96,69.63c0,0.29-0.04,0.5-0.12,0.61
			c-0.08,0.12-0.22,0.17-0.42,0.17h-6.36c-0.39,0-0.66-0.1-0.82-0.29c-0.16-0.19-0.24-0.5-0.24-0.91v-0.48
			c0-0.37,0.08-0.65,0.24-0.84c0.16-0.19,0.43-0.29,0.82-0.29h6.91V69.63z"/>
            <path class="st0" d="M62.53,60.29c-0.86,0-1.57,0.09-2.14,0.27c-0.57,0.18-1.03,0.45-1.38,0.83c-0.35,0.38-0.59,0.86-0.75,1.45
			c-0.15,0.59-0.23,1.3-0.23,2.13v7.98h2.7v-7.36c0-0.48,0.03-0.88,0.09-1.21c0.06-0.33,0.17-0.59,0.33-0.78
			c0.16-0.19,0.37-0.33,0.63-0.42c0.26-0.08,0.6-0.13,1-0.13h1.16h4.2v-2.77h-4.2H62.53z"/>
            <path class="st0" d="M75.42,56.74h-2.7v3.55h-2.13v2.72h2.13v5.35c0,0.82,0.06,1.51,0.17,2.1c0.11,0.58,0.32,1.06,0.61,1.43
			c0.3,0.37,0.69,0.64,1.18,0.81c0.49,0.17,1.11,0.25,1.87,0.25h2.51v-2.72H77c-0.63,0-1.05-0.15-1.26-0.45
			c-0.21-0.3-0.32-0.77-0.32-1.42v-5.35h3.64v-2.72h-3.64V56.74z"/>
            <rect x="17.71" y="69.43" class="st1" width="3.43" height="3.43"/>
	</g>
</g>
</svg>
