<svg width="18" height="14" viewBox="0 0 18 14" fill="none" xmlns="http://www.w3.org/2000/svg">
<path d="M16.5 0H3.5C2.67156 0 2 0.671562 2 1.5V2H1.5C0.671562 2 0 2.67156 0 3.5V12.5C0 13.3284 0.671562 14 1.5 14H14.5C15.3284 14 16 13.3284 16 12.5V12H16.5C17.3284 12 18 11.3284 18 10.5V1.5C18 0.671562 17.3284 0 16.5 0ZM15 12.5C15 12.7757 14.7757 13 14.5 13H1.5C1.22431 13 1 12.7757 1 12.5V3.5C1 3.22431 1.22431 3 1.5 3H2V10.5C2 11.3284 2.67156 12 3.5 12H15V12.5ZM17 10.5C17 10.7757 16.7757 11 16.5 11H3.5C3.22431 11 3 10.7757 3 10.5V1.5C3 1.22431 3.22431 1 3.5 1H16.5C16.7757 1 17 1.22431 17 1.5V10.5ZM5.5 5.25C6.4665 5.25 7.25 4.4665 7.25 3.5C7.25 2.5335 6.4665 1.75 5.5 1.75C4.5335 1.75 3.75 2.5335 3.75 3.5C3.75 4.4665 4.5335 5.25 5.5 5.25ZM5.5 2.75C5.91356 2.75 6.25 3.08644 6.25 3.5C6.25 3.91356 5.91356 4.25 5.5 4.25C5.08644 4.25 4.75 3.91356 4.75 3.5C4.75 3.08644 5.08644 2.75 5.5 2.75ZM13.0303 3.46966C12.7374 3.17675 12.2626 3.17675 11.9697 3.46966L9 6.43934L8.03034 5.46966C7.73744 5.17675 7.26256 5.17675 6.96969 5.46966L4.21969 8.21966C4.07903 8.36031 4.00001 8.55108 4 8.75V9.625C4 9.83209 4.16791 10 4.375 10H15.625C15.8321 10 16 9.83209 16 9.625V6.75C16 6.55109 15.921 6.36031 15.7803 6.21966L13.0303 3.46966ZM15 9H5V8.85356L7.5 6.35356L9 7.85356L12.5 4.35356L15 6.85356V9Z" fill="#5A95F5"/>
</svg>
