<svg width="22" height="18" viewBox="0 0 22 18" fill="none" xmlns="http://www.w3.org/2000/svg">
<path d="M2.0625 0.75H7.73438C8.01797 0.75 8.25 0.982031 8.25 1.26562V1.60938C8.25 1.89297 8.01797 2.125 7.73438 2.125H2.0625C1.68438 2.125 1.375 2.43438 1.375 2.8125V15.1875C1.375 15.5656 1.68438 15.875 2.0625 15.875H7.73438C8.01797 15.875 8.25 16.107 8.25 16.3906V16.7344C8.25 17.018 8.01797 17.25 7.73438 17.25H2.0625C0.923828 17.25 0 16.3262 0 15.1875V2.8125C0 1.67383 0.923828 0.75 2.0625 0.75ZM14.0508 1.58789L13.7457 1.89297C13.5437 2.09492 13.5437 2.42148 13.7457 2.62344L19.4176 8.26953H7.39062C7.10703 8.26953 6.875 8.50156 6.875 8.78516V9.21484C6.875 9.49844 7.10703 9.73047 7.39062 9.73047H19.4176L13.75 15.3766C13.548 15.5785 13.548 15.9051 13.75 16.107L14.0551 16.4121C14.257 16.6141 14.5836 16.6141 14.7855 16.4121L21.8539 9.36523C22.0559 9.16328 22.0559 8.83672 21.8539 8.63477L14.7812 1.58789C14.5793 1.38594 14.2527 1.38594 14.0508 1.58789Z" fill="#5A95F5"/>
</svg>
